<svg xmlns="http://www.w3.org/2000/svg" width="81.995" height="82" viewBox="0 0 81.995 82"><defs><style>.a{fill:#795547;}</style></defs><g transform="translate(0.01)"><path class="a" d="M41.057,0H78.788c2.375,0,3.2.815,3.2,3.172V60.906c0,2.353-.826,3.172-3.2,3.172-1.674,0-3.351.055-5.025-.015-1.239-.055-1.2,1.031-1.644,1.663-.369.526.245.716.512.99q3.13,3.2,6.282,6.377a1.528,1.528,0,0,1,.4,1.75c-.248.65-.815.753-1.425.749-1.341,0-2.679.018-4.02-.015-.64-.018-.866.223-.844.855.037.972.048,1.951,0,2.923-.044.892.384,2-.775,2.5S70.474,81.4,69.8,80.727c-2.419-2.4-4.835-4.805-7.225-7.236a1.742,1.742,0,0,0-1.692-.57,12.922,12.922,0,0,1-4.093-.015,1.516,1.516,0,0,0-1.465.479c-2.481,2.514-4.988,5-7.488,7.5-.259.259-.512.523-.789.756a1.4,1.4,0,0,1-1.542.216,1.236,1.236,0,0,1-.749-1.25c0-1.341-.033-2.682.011-4.02.026-.738-.19-1.041-.972-1.009-1.308.055-2.616.007-3.928.015a1.3,1.3,0,0,1-1.4-.8,1.566,1.566,0,0,1,.409-1.758c2.174-2.167,4.338-4.345,6.523-6.5a.759.759,0,0,0,.186-1.012,2.267,2.267,0,0,0-2.518-1.48c-13.276.058-26.552.04-39.832.04C.8,64.082-.01,63.274-.01,60.859Q0,32.048-.006,3.223C-.006.8.8,0,3.235,0Zm-.051,7.809q-13.473,0-26.943-.015a1.352,1.352,0,0,0-1.579,1.049,5.891,5.891,0,0,1-3.859,3.738,1.02,1.02,0,0,0-.837,1.169c.04,1.491.015,2.982.015,4.477q0,16.028-.015,32.055a1.087,1.087,0,0,0,.877,1.231,6.248,6.248,0,0,1,3.917,3.826,1.242,1.242,0,0,0,1.389.95q14.246-.033,28.5,0c.771,0,1.118-.23,1.177-.99a12.926,12.926,0,0,1,2.679-6.691,15.2,15.2,0,0,1,17.161-5.748,14.829,14.829,0,0,1,9.22,7.795c.2.38.347.8.928.661s.537-.574.537-1.009q0-18.313.018-36.623a.974.974,0,0,0-.815-1.089,5.945,5.945,0,0,1-3.914-3.8,1.252,1.252,0,0,0-1.422-1Q54.525,7.827,41.006,7.809ZM41.02,2.7v0H3.933c-1.242,0-1.242,0-1.242,1.253V60.128c0,1.261,0,1.264,1.235,1.264H32.977c3.318,0,6.64,0,9.958-.007.292,0,.705.186.833-.311a1.578,1.578,0,0,0-1.619-2.1H12.184c-1.557,0-1.743-.161-2.043-1.7a3.772,3.772,0,0,0-3.355-3.351c-1.517-.289-1.67-.479-1.67-2.057V12.22c0-1.579.153-1.765,1.674-2.057a3.8,3.8,0,0,0,3.366-3.347c.289-1.538.475-1.7,2.028-1.7H69.736c1.626,0,1.783.132,2.1,1.736a3.885,3.885,0,0,0,3.234,3.282c1.71.344,1.8.449,1.8,2.233Q76.871,30.68,76.873,49c0,1.158,0,2.313-.015,3.472a1.27,1.27,0,0,1-1.18,1.378c-.241.037-.479.1-.72.124-.691.066-.957.417-.84,1.107a15.681,15.681,0,0,1-.055,5.449c-.132.731.113.9.8.873a31.6,31.6,0,0,1,3.38,0c.884.055,1.06-.307,1.06-1.111q-.027-28.229.007-56.455c0-.954-.3-1.162-1.2-1.158Q59.564,2.719,41.02,2.7ZM58.861,44.9c-7.331.347-12.666,5.646-12.611,12.768A12.336,12.336,0,0,0,58.883,70.261,12.326,12.326,0,0,0,71.537,57.61C71.512,50.2,65.954,45.218,58.861,44.9ZM70.288,77.365c.048-1.4.289-2.489-.775-3.366a1.364,1.364,0,1,1,1.922-1.926c.877,1.056,1.959.826,3.07.786-.018-.117-.007-.194-.037-.223-1.356-1.348-2.722-2.69-4.075-4.042-.351-.351-.541-.055-.745.15a13.843,13.843,0,0,1-4.111,2.817c-.552.252-.5.475-.121.84.658.629,1.294,1.279,1.929,1.929C68.274,75.282,69.191,76.236,70.288,77.365Zm-22.766-.183c1.75-1.747,3.336-3.318,4.9-4.908.289-.292.1-.555-.227-.713a16.152,16.152,0,0,1-4.148-2.938c-.351-.333-.574-.172-.833.1-.7.716-1.425,1.411-2.119,2.134A14.637,14.637,0,0,0,43.2,72.878c1.221.018,2.324.259,3.19-.83A1.355,1.355,0,1,1,48.3,73.967C47.295,74.785,47.4,75.8,47.521,77.182Z" transform="translate(0 0)"/><path class="a" d="M67.641,76.868H45.079C42.858,76.868,42,76,42,73.758c0-1.4,0-2.8,0-4.2,0-2.182.87-3.059,3.037-3.059q14.8-.005,29.6,0,7.811,0,15.618,0c2.171,0,3.037.873,3.04,3.055,0,1.462.011,2.923,0,4.385-.015,2.006-.906,2.92-2.9,2.92q-11.374.011-22.744,0Zm0-7.678h0c-.61,0-1.217,0-1.827,0-6.7,0-13.393.011-20.091-.018-.786,0-1.1.2-1.049,1.023a18.738,18.738,0,0,1,0,2.828c-.08.954.285,1.166,1.191,1.166,9.589-.029,19.178-.018,28.767-.018,4.992,0,9.984-.015,14.975.011.738,0,1.049-.208,1-.979a22.238,22.238,0,0,1,.007-2.92c.069-.917-.3-1.111-1.151-1.107C82.189,69.2,74.913,69.19,67.637,69.19Z" transform="translate(-26.654 -42.196)"/><path class="a" d="M85.447,55.184H72.306c-.245,0-.486,0-.731,0-1.038-.029-1.564-.5-1.546-1.378.018-.84.523-1.3,1.52-1.308,1.794-.015,3.589-.007,5.383-.007H99.2c1.115.022,1.655.475,1.637,1.378-.018.866-.537,1.308-1.612,1.308-3.468.011-6.936.007-10.4.007H85.443Z" transform="translate(-44.445 -33.305)"/><path class="a" d="M94.257,38.5c2.92,0,5.843-.007,8.763,0,1,0,1.506.457,1.535,1.3.029.877-.449,1.37-1.425,1.385-1.429.022-2.861,0-4.29,0q-6.616,0-13.236,0a1.437,1.437,0,0,1-1.524-.764c-.453-.994.2-1.919,1.411-1.926C88.414,38.486,91.338,38.5,94.257,38.5Z" transform="translate(-53.27 -24.428)"/><path class="a" d="M50.95,111.193c-2.492,0-4.984.015-7.477-.007a1.345,1.345,0,0,1-1.378-1.944,1.273,1.273,0,0,1,1.261-.735c5.076,0,10.152-.007,15.227.007a1.252,1.252,0,0,1,1.411,1.319c.007.851-.5,1.345-1.473,1.352C56,111.2,53.475,111.193,50.95,111.193Z" transform="translate(-26.623 -68.854)"/><path class="a" d="M48.5,125.182c-1.641,0-3.282.011-4.922,0-1.045-.007-1.568-.479-1.56-1.356s.53-1.323,1.59-1.327q4.873-.016,9.75,0c1.045,0,1.568.482,1.56,1.356s-.53,1.319-1.59,1.327C51.726,125.193,50.114,125.182,48.5,125.182Z" transform="translate(-26.671 -77.727)"/><path class="a" d="M99.393,111.2a1.336,1.336,0,1,1,1.3-1.319A1.271,1.271,0,0,1,99.393,111.2Z" transform="translate(-62.213 -68.869)"/><path class="a" d="M85.363,125.208a1.334,1.334,0,1,1,1.337-1.286A1.269,1.269,0,0,1,85.363,125.208Z" transform="translate(-53.328 -77.76)"/><path class="a" d="M153.493,139.6c.274,5.558-4.685,10.619-10.74,10.462-4.513-.117-10.06-4.385-9.918-10.583A10.64,10.64,0,0,1,143.4,129.349C149.1,129.411,153.822,134.706,153.493,139.6Zm-10.3,7.659a7.564,7.564,0,1,0-7.564-7.517A7.687,7.687,0,0,0,143.192,147.262Z" transform="translate(-84.298 -82.081)"/></g></svg>